<svg width="1157" height="260" viewBox="0 0 1157 260" fill="none" xmlns="http://www.w3.org/2000/svg">
<path d="M83.72 259.168C66.976 259.168 52.2947 256.013 39.676 249.704C27.0573 243.152 17.2293 233.809 10.192 221.676C3.39733 209.3 6.18398e-07 194.255 6.18398e-07 176.54H50.596C50.596 184.305 51.8093 190.979 54.236 196.56C56.6627 202.141 60.1813 206.388 64.792 209.3C69.4027 212.212 75.2267 213.668 82.264 213.668C89.3013 213.668 95.004 212.333 99.372 209.664C103.74 206.752 106.895 202.748 108.836 197.652C111.02 192.556 112.112 186.489 112.112 179.452V9.53674e-07H163.072V179.452C163.072 205.175 155.792 224.952 141.232 238.784C126.915 252.373 107.744 259.168 83.72 259.168ZM210.648 254.8V9.53674e-07H261.608V254.8H210.648ZM309.345 254.8V9.53674e-07H370.497L447.301 156.884L523.013 9.53674e-07H583.801V254.8H532.841V86.268L466.957 219.128H426.553L360.305 86.268V254.8H309.345ZM631.277 254.8V9.53674e-07H692.429L769.233 156.884L844.945 9.53674e-07H905.733V254.8H854.773V86.268L788.889 219.128H748.485L682.237 86.268V254.8H631.277ZM1019.46 254.8V165.984L933.189 9.53674e-07H991.065L1050.4 124.852H1040.57L1099.54 9.53674e-07H1156.69L1070.42 165.984V254.8H1019.46Z" fill="white"/>
</svg>
